<svg width="25" height="25" viewBox="0 0 25 25" fill="none" xmlns="http://www.w3.org/2000/svg">
<path d="M25 4.16667V3.125C25 2.2962 24.6708 1.50134 24.0847 0.915291C23.4987 0.32924 22.7038 0 21.875 0C21.0462 0 20.2513 0.32924 19.6653 0.915291C19.0792 1.50134 18.75 2.2962 18.75 3.125V6.25H13.5417V3.125C13.5417 2.84873 13.6514 2.58378 13.8468 2.38843C14.0421 2.19308 14.3071 2.08333 14.5833 2.08333C14.8596 2.08333 15.1246 2.19308 15.3199 2.38843C15.5153 2.58378 15.625 2.84873 15.625 3.125V4.16667H17.7083V3.125C17.7083 2.2962 17.3791 1.50134 16.793 0.915291C16.207 0.32924 15.4121 6.58545e-08 14.5833 6.58545e-08C13.7545 6.58545e-08 12.9597 0.32924 12.3736 0.915291C11.7876 1.50134 11.4583 2.2962 11.4583 3.125V14.7396C10.9806 14.6285 10.4912 14.5761 10.0008 14.5833C7.50078 14.5833 7.50078 15.625 5.00078 15.625C2.50078 15.625 2.5 14.5833 0 14.5833V18.75C2.5 18.75 2.5 19.7917 5 19.7917C7.5 19.7917 7.5 18.75 10 18.75C12.5 18.75 12.5 19.7917 15 19.7917C17.5 19.7917 17.5 18.75 20 18.75C22.5 18.75 22.5 19.7917 25 19.7917V15.625C22.8139 15.625 22.5391 14.8285 20.8333 14.6285V3.125C20.8333 2.84873 20.9431 2.58378 21.1384 2.38843C21.3338 2.19308 21.5987 2.08333 21.875 2.08333C22.1513 2.08333 22.4162 2.19308 22.6116 2.38843C22.8069 2.58378 22.9167 2.84873 22.9167 3.125V4.16667H25ZM18.75 8.33333V10.4167H13.5417V8.33333H18.75ZM13.5417 15.4688V12.5H18.75V14.6944C17.3992 14.9625 16.9948 15.625 15 15.625C14.5093 15.6323 14.0196 15.5799 13.5417 15.4688Z" fill="url(#paint0_linear_1896_3105)"/>
<path d="M15 20.8333C12.5 20.8333 12.5 19.7916 10 19.7916C7.5 19.7916 7.5 20.8333 5 20.8333C2.5 20.8333 2.5 19.7916 0 19.7916V25H25V20.8333C22.5 20.8333 22.5 19.7916 20 19.7916C17.5 19.7916 17.5 20.8333 15 20.8333Z" fill="url(#paint1_linear_1896_3105)"/>
<defs>
<linearGradient id="paint0_linear_1896_3105" x1="0" y1="9.89583" x2="25" y2="9.89583" gradientUnits="userSpaceOnUse">
<stop stop-color="#B79891"/>
<stop offset="1" stop-color="#94716B"/>
</linearGradient>
<linearGradient id="paint1_linear_1896_3105" x1="0" y1="22.3958" x2="25" y2="22.3958" gradientUnits="userSpaceOnUse">
<stop stop-color="#B79891"/>
<stop offset="1" stop-color="#94716B"/>
</linearGradient>
</defs>
</svg>
