<svg width="25" height="25" viewBox="0 0 25 25" fill="none" xmlns="http://www.w3.org/2000/svg">
<g clip-path="url(#clip0_1896_3088)">
<path d="M12.5012 1.95764C6.67852 1.95764 1.95898 6.67717 1.95898 12.4999C1.95898 16.6953 4.41603 20.3071 7.96371 22.0039L8.29368 15.6279C8.29368 15.6279 7.67301 15.4243 7.53715 15.3579C6.2207 14.778 5.26436 13.0706 5.26436 10.8546C5.26436 8.43653 7.13968 6.35371 8.95275 6.3365C8.95505 6.3365 8.95505 6.3365 8.95656 6.3365C8.95735 6.3365 8.95886 6.3365 8.95958 6.3365C10.7731 6.35364 12.6484 8.43647 12.6484 10.8546C12.6484 13.0706 11.6909 14.7773 10.3772 15.3579C10.3668 15.3625 9.61459 15.6356 9.61459 15.6356L9.9831 22.7249C10.7918 22.9239 11.6325 23.0407 12.5027 23.0407C13.6761 23.0407 14.7999 22.8408 15.8543 22.4876L16.1808 16.1697C15.3203 15.9804 14.5863 15.4326 14.1262 14.7453C13.5563 13.8916 14.5649 6.33578 14.5649 6.33578H15.2211V13.4261H15.8727V6.33657H16.5852V13.4277H17.2338V6.33657H17.9731V13.4277H18.6238V6.33657H19.1273C19.1273 6.33657 20.1359 13.8924 19.5653 14.7461C19.1098 15.4266 18.3827 15.9729 17.5329 16.1667C17.5176 16.172 17.5038 16.1773 17.5038 16.1773L17.7876 21.6118C20.9279 19.786 23.0443 16.3941 23.0443 12.5C23.0427 6.67724 18.3232 1.95764 12.5012 1.95764Z" fill="url(#paint0_linear_1896_3088)"/>
<path d="M6.80672 9.78277C6.84448 9.62905 6.89524 9.48294 6.89754 9.48031C6.91395 9.42273 6.88342 9.36396 6.82084 9.32659C6.76135 9.29455 6.68886 9.31096 6.6553 9.36245C6.6553 9.36245 6.5832 9.47729 6.47866 9.64704C6.39363 9.79314 6.26775 10.0266 6.18186 10.3173C6.10746 10.5721 6.01861 10.9108 5.97856 11.29C5.96142 11.4891 5.95755 11.6688 5.96365 11.8538C5.97856 12.0647 6.01054 12.2451 6.07161 12.4515C6.27871 13.0401 6.43821 13.6101 7.01383 14.1723C7.19579 14.3593 7.38274 14.4867 7.51774 14.5805L7.56542 14.6141C7.59444 14.6332 7.62228 14.6508 7.64973 14.6668C7.76307 14.7263 7.83891 14.7476 7.8527 14.7506C7.90911 14.7659 7.96715 14.7384 7.99112 14.6927C8.01364 14.6446 7.99723 14.5843 7.95034 14.5462C7.95034 14.5462 7.88468 14.489 7.80043 14.3822C7.74284 14.3173 7.68026 14.2235 7.60744 14.1175C7.55596 14.0427 7.49529 13.958 7.43881 13.8756C7.15842 13.4476 6.99676 12.8502 6.77317 12.2383C6.7293 12.1055 6.69345 11.9335 6.68006 11.7874C6.6622 11.6188 6.65379 11.4563 6.65379 11.3056C6.64729 10.9554 6.66292 10.6548 6.69345 10.411C6.72852 10.136 6.75596 9.92966 6.80672 9.78277Z" fill="url(#paint1_linear_1896_3088)"/>
<path d="M12.5008 0C5.60877 0 0 5.60758 0 12.5C0 19.3908 5.60877 25 12.5008 25C19.3924 25 25.0001 19.3908 25.0001 12.5C25 5.60758 19.3924 0 12.5008 0ZM12.5008 24.0677C6.12181 24.0677 0.931916 18.8782 0.931916 12.5C0.931916 6.12102 6.12181 0.931128 12.5008 0.931128C18.879 0.931128 24.0693 6.12102 24.0693 12.5C24.0692 18.8782 18.8789 24.0677 12.5008 24.0677Z" fill="url(#paint2_linear_1896_3088)"/>
</g>
<defs>
<linearGradient id="paint0_linear_1896_3088" x1="1.95898" y1="12.4992" x2="23.0443" y2="12.4992" gradientUnits="userSpaceOnUse">
<stop stop-color="#B79891"/>
<stop offset="1" stop-color="#94716B"/>
</linearGradient>
<linearGradient id="paint1_linear_1896_3088" x1="5.96094" y1="12.0325" x2="8.00111" y2="12.0325" gradientUnits="userSpaceOnUse">
<stop stop-color="#B79891"/>
<stop offset="1" stop-color="#94716B"/>
</linearGradient>
<linearGradient id="paint2_linear_1896_3088" x1="0" y1="12.5" x2="25.0001" y2="12.5" gradientUnits="userSpaceOnUse">
<stop stop-color="#B79891"/>
<stop offset="1" stop-color="#94716B"/>
</linearGradient>
<clipPath id="clip0_1896_3088">
<rect width="25" height="25" fill="white"/>
</clipPath>
</defs>
</svg>
