<svg width="24" height="24" viewBox="0 0 24 24" fill="none" xmlns="http://www.w3.org/2000/svg">
<path d="M11.5047 0C7.3591 0 4 3.34559 4 7.48968C4 14.6552 11.5047 24 11.5047 24C11.5047 24 19.0094 14.6537 19.0094 7.48968C19.0094 3.34709 15.6503 0 11.5047 0ZM11.5047 11.6338C10.4299 11.6338 9.39911 11.2068 8.63912 10.4468C7.87912 9.68682 7.45216 8.65604 7.45216 7.58124C7.45216 6.50644 7.87912 5.47566 8.63912 4.71566C9.39911 3.95567 10.4299 3.52871 11.5047 3.52871C12.5795 3.52871 13.6103 3.95567 14.3703 4.71566C15.1303 5.47566 15.5572 6.50644 15.5572 7.58124C15.5572 8.65604 15.1303 9.68682 14.3703 10.4468C13.6103 11.2068 12.5795 11.6338 11.5047 11.6338Z" fill="url(#paint0_linear_1896_2974)"/>
<defs>
<linearGradient id="paint0_linear_1896_2974" x1="4" y1="12" x2="19.0094" y2="12" gradientUnits="userSpaceOnUse">
<stop stop-color="#B79891"/>
<stop offset="1" stop-color="#94716B"/>
</linearGradient>
</defs>
</svg>
