<svg width="24" height="24" viewBox="0 0 24 24" fill="none" xmlns="http://www.w3.org/2000/svg">
<path d="M10.4893 13.6793C11.7411 14.9493 13.2559 15.9298 14.9271 16.5519L17.1879 14.7528C17.255 14.7066 17.3344 14.6819 17.4158 14.6819C17.4972 14.6819 17.5767 14.7066 17.6437 14.7528L21.8416 17.4575C22.001 17.5533 22.1359 17.6848 22.2357 17.8417C22.3355 17.9987 22.3974 18.1766 22.4166 18.3616C22.4358 18.5465 22.4118 18.7334 22.3463 18.9075C22.2809 19.0816 22.1758 19.238 22.0395 19.3645L20.0725 21.3075C19.7908 21.5859 19.4446 21.7902 19.0647 21.9021C18.6849 22.0141 18.2832 22.0303 17.8956 21.9492C14.0288 21.1506 10.4648 19.2803 7.61069 16.5519C4.81996 13.7964 2.8888 10.2903 2.05145 6.4589C1.96873 6.07728 1.98599 5.68075 2.10157 5.30776C2.21714 4.93477 2.42711 4.59795 2.71112 4.32996L4.75011 2.36293C4.87629 2.23327 5.03016 2.13383 5.20021 2.07206C5.37027 2.0103 5.55209 1.9878 5.73207 2.00626C5.91205 2.02472 6.08552 2.08366 6.23949 2.17866C6.39347 2.27366 6.52395 2.40226 6.62118 2.55484L9.4158 6.69879C9.464 6.76386 9.49002 6.84269 9.49002 6.92367C9.49002 7.00465 9.464 7.08349 9.4158 7.14856L7.57471 9.36147C8.21374 10.9992 9.20934 12.4742 10.4893 13.6793Z" fill="url(#paint0_linear_1896_2970)"/>
<defs>
<linearGradient id="paint0_linear_1896_2970" x1="2" y1="12" x2="22.423" y2="12" gradientUnits="userSpaceOnUse">
<stop stop-color="#B79891"/>
<stop offset="1" stop-color="#94716B"/>
</linearGradient>
</defs>
</svg>
