<svg width="25" height="25" viewBox="0 0 25 25" fill="none" xmlns="http://www.w3.org/2000/svg">
<g clip-path="url(#clip0_1896_3069)">
<path d="M24.6661 0.195133C24.4571 0.0254905 24.1821 -0.033438 23.9143 0.0201334L7.84286 3.59156C7.43393 3.68263 7.14286 4.04513 7.14286 4.46299V18.588C6.39464 18.1344 5.47321 17.8558 4.46429 17.8558C2.00357 17.8558 0 19.4576 0 21.4273C0 23.3969 2.00357 24.9987 4.46429 24.9987C6.925 24.9987 8.92857 23.3969 8.92857 21.4273V10.5362L23.2143 7.3612V15.0166C22.4661 14.563 21.5446 14.2844 20.5357 14.2844C18.0732 14.2844 16.0714 15.8862 16.0714 17.8558C16.0714 19.8255 18.0732 21.4273 20.5357 21.4273C22.9982 21.4273 25 19.8255 25 17.8558V0.891562C25 0.620133 24.8786 0.364776 24.6661 0.195133Z" fill="url(#paint0_linear_1896_3069)"/>
</g>
<defs>
<linearGradient id="paint0_linear_1896_3069" x1="0" y1="12.4998" x2="25" y2="12.4998" gradientUnits="userSpaceOnUse">
<stop stop-color="#B79891"/>
<stop offset="1" stop-color="#94716B"/>
</linearGradient>
<clipPath id="clip0_1896_3069">
<rect width="25" height="25" fill="white"/>
</clipPath>
</defs>
</svg>
