<svg width="60" height="60" viewBox="0 0 60 60" fill="none" xmlns="http://www.w3.org/2000/svg">
<path d="M9.93845 3.14062C9.86814 3.30468 9.8447 6.49218 9.89157 10.2187C9.96189 16.5937 9.98532 17.0625 10.4775 18.0937C11.1103 19.5 12.7041 21.0703 14.1806 21.8203C15.8916 22.6406 18.5869 22.6172 20.415 21.7734C22.8056 20.6484 24.54 18.2344 24.6572 15.7969L24.7275 14.6484L17.8838 14.5781L11.0166 14.5312V8.95312C11.0166 4.92187 10.9463 3.30468 10.7353 3.09375C10.3603 2.71875 10.1025 2.74218 9.93845 3.14062Z" fill="white"/>
<path d="M23.0403 3.14062C20.9544 4.07812 20.8138 7.00781 22.806 8.20312C23.6966 8.76562 24.3528 8.78906 25.431 8.34374C26.4388 7.92187 27.0013 7.03124 27.0482 5.88281C27.095 3.72656 24.9857 2.27343 23.0403 3.14062Z" fill="white"/>
<path d="M51.1406 6.14062C50.9766 6.30469 50.8594 6.63281 50.8594 6.91406C50.8594 7.19531 50.9766 7.52344 51.1406 7.6875C51.3047 7.85156 51.6328 7.96875 51.9141 7.96875C52.1953 7.96875 52.5234 7.85156 52.6875 7.6875C52.8516 7.52344 52.9688 7.19531 52.9688 6.91406C52.9688 6.63281 52.8516 6.30469 52.6875 6.14062C52.5234 5.97656 52.1953 5.85938 51.9141 5.85938C51.6328 5.85938 51.3047 5.97656 51.1406 6.14062Z" fill="white"/>
<path d="M15.2813 7.3125C14.9297 7.66406 14.9297 8.50781 15.2813 8.85938C15.4453 9.02344 15.8672 9.14062 16.2188 9.14062C17.0625 9.14062 17.5313 8.29688 17.1328 7.52344C16.8281 6.98438 15.75 6.84375 15.2813 7.3125Z" fill="white"/>
<path d="M36.515 9.32812C35.9994 9.42187 35.6947 10.4766 36.0228 10.9922C36.3275 11.4844 37.3588 11.6016 37.7103 11.1562C38.4369 10.2891 37.6166 9.07031 36.515 9.32812Z" fill="white"/>
<path d="M46.3821 10.5C45.5853 11.2031 45.3978 12.3516 45.9134 13.3359C46.265 13.9922 46.9915 14.3438 47.9993 14.3438C48.6556 14.3438 49.0071 14.1797 49.4993 13.6172C50.4134 12.6094 50.39 11.4609 49.4759 10.5234C48.5384 9.60938 47.39 9.58594 46.3821 10.5Z" fill="white"/>
<path d="M5.06274 10.6875C4.61743 11.1094 4.57055 11.9766 4.96899 12.375C5.4143 12.8203 6.25805 12.7031 6.65649 12.1641C7.03149 11.625 6.93774 11.0625 6.37524 10.5938C5.88305 10.2188 5.50805 10.2422 5.06274 10.6875Z" fill="white"/>
<path d="M28.0549 15.4219C27.5393 15.9844 27.5627 16.4766 28.0783 16.9453C28.6408 17.4609 29.133 17.4375 29.6018 16.9219C30.0939 16.3828 30.1174 15.8438 29.6252 15.375C29.133 14.8828 28.5236 14.9063 28.0549 15.4219Z" fill="white"/>
<path d="M52.3131 16.4531C51.8444 16.9219 51.985 18 52.5241 18.3047C53.2975 18.7031 54.1412 18.2344 54.1412 17.3906C54.1412 16.6172 53.7662 16.1719 53.0866 16.1719C52.8053 16.1719 52.4772 16.2891 52.3131 16.4531Z" fill="white"/>
<path d="M5.50781 19.1953C4.64062 19.5703 4.10156 20.3906 4.10156 21.375C4.10156 22.1484 4.24219 22.4297 4.875 22.9922C5.92969 23.9297 6.84375 23.9063 7.875 22.875C8.88281 21.8672 8.92969 20.9297 8.03906 19.9219C7.33594 19.1719 6.28125 18.8672 5.50781 19.1953Z" fill="white"/>
<path d="M35.4375 19.4297C34.0781 19.8984 33.0469 20.7188 33.0469 21.3281C33.0469 21.5625 33.4453 21.8906 34.0078 22.1484C34.9453 22.5703 36.0938 23.7891 36.0938 24.3281C36.0938 25.0313 38.7891 24.9141 40.3125 24.1406C41.5313 23.5313 42.0469 22.8281 42.0469 21.8672C42.0469 20.7891 41.0391 19.8516 39.3516 19.3594C37.7813 18.8906 36.9609 18.8906 35.4375 19.4297Z" fill="white"/>
<path d="M28.8274 22.7109C25.3118 23.8594 25.0071 26.4375 28.2415 27.7969C30.2571 28.6406 33.3743 28.0781 34.5696 26.6719C36.1399 24.8203 34.3118 22.7578 30.9368 22.5938C30.093 22.5469 29.1555 22.5938 28.8274 22.7109Z" fill="white"/>
<path d="M43.0313 23.1563C42.6094 24 41.5781 24.8906 40.5703 25.2891C40.1719 25.4766 39.8438 25.6875 39.8438 25.7813C39.8438 26.25 41.1094 27.3984 42 27.7734C44.1328 28.6172 47.2031 28.1016 48.3984 26.6719C49.9453 24.8438 48.1875 22.8281 44.8594 22.5469C43.4297 22.4531 43.4063 22.4531 43.0313 23.1563Z" fill="white"/>
<path d="M15.6328 26.3672C14.625 26.7188 13.5938 27.5625 13.5938 28.0547C13.5938 28.2891 14.4844 28.3594 17.9297 28.3594C20.3203 28.3594 22.2656 28.2891 22.2656 28.2188C22.2656 27.7266 21.5859 27.0703 20.5547 26.5781C19.1484 25.9219 17.0859 25.8281 15.6328 26.3672Z" fill="white"/>
<path d="M8.90625 29.8125C8.92969 29.9766 9.375 32.2734 9.91406 34.9219L10.9219 39.7266L13.8984 39.7969L16.875 39.8672V39.3047C16.875 39 16.6172 36.75 16.2891 34.3125C15.9609 31.875 15.7031 29.8125 15.7031 29.6953C15.7031 29.6016 14.1797 29.5313 12.3047 29.5313C9.72656 29.5313 8.90625 29.6016 8.90625 29.8125Z" fill="white"/>
<path d="M17.0156 30.8672C17.1094 31.6172 17.3906 33.9141 17.6719 35.9766L18.1641 39.7266L21.1875 39.7969L24.2109 39.8672L24.0469 36.1641C23.9531 34.125 23.8359 31.8047 23.7422 30.9844L23.6016 29.5313H20.2266H16.8516L17.0156 30.8672Z" fill="white"/>
<path d="M24.9141 31.2187C25.0078 32.1562 25.125 34.4766 25.2187 36.375L25.3828 39.8438H30H34.6172L34.7812 36.375C34.875 34.4766 34.9922 32.1562 35.0859 31.2187L35.2266 29.5312H30H24.7734L24.9141 31.2187Z" fill="white"/>
<path d="M36.2578 30.9844C36.1641 31.8047 36.0469 34.125 35.9531 36.1406L35.7891 39.8438H38.8359H41.8594L42.4922 34.8516C42.8437 32.1328 43.125 29.8125 43.125 29.6953C43.125 29.6016 41.6016 29.5312 39.75 29.5312H36.3984L36.2578 30.9844Z" fill="white"/>
<path d="M44.2969 29.6953C44.2969 29.8125 44.0391 31.9453 43.7109 34.4531C43.3828 36.9609 43.125 39.2109 43.125 39.4453C43.125 39.8203 43.3828 39.8438 46.1016 39.7969L49.0781 39.7266L50.0859 34.9219C50.625 32.2734 51.0703 29.9766 51.0938 29.8125C51.0938 29.6016 50.2734 29.5313 47.6953 29.5313C45.8203 29.5313 44.2969 29.6016 44.2969 29.6953Z" fill="white"/>
<path d="M9.04688 41.7656C9.11719 42.1875 9.32812 42.9609 9.46875 43.4766L9.75 44.4141H30H50.25L50.5312 43.4766C50.6719 42.9609 50.8828 42.1875 50.9531 41.7656L51.1406 41.0156H30H8.85938L9.04688 41.7656Z" fill="white"/>
<path d="M12.1875 45.6328C12.1875 45.75 12.6562 48.0703 13.2422 50.8125C13.8281 53.5781 14.2969 55.875 14.2969 55.9219C14.2969 55.9687 15.3516 56.0156 16.6406 56.0156H18.9844V55.3359C18.9844 54.4453 17.8359 45.9141 17.6719 45.6562C17.5312 45.4219 12.1875 45.3984 12.1875 45.6328Z" fill="white"/>
<path d="M19.0073 45.8672C19.0073 46.1016 19.2886 48.4453 19.6401 51.0938L20.2964 55.8984L22.7104 55.9688L25.1245 56.0391L24.9604 52.6172C24.8667 50.7422 24.7261 48.3984 24.6323 47.3906L24.4917 45.5859L21.7495 45.5156C19.2182 45.4688 18.9839 45.4922 19.0073 45.8672Z" fill="white"/>
<path d="M25.875 48.2109C25.9453 49.7344 26.0859 52.1016 26.1797 53.4844L26.3203 56.0156H30H33.6797L33.8203 53.5078C33.9141 52.1016 34.0547 49.7344 34.125 48.2109L34.2891 45.4688H30H25.7109L25.875 48.2109Z" fill="white"/>
<path d="M35.5078 45.75C35.4141 46.0781 34.9219 53.8359 34.9219 55.1953V56.0156H40.3125C43.2891 56.0156 45.7031 55.9688 45.7031 55.9219C45.7031 55.875 46.1719 53.5781 46.7578 50.8125C47.3438 48.0703 47.8125 45.7266 47.8125 45.6328C47.8125 45.5391 46.5703 45.4922 45.0703 45.5156L42.3047 45.5859L41.9531 48.3281C41.7422 49.8281 41.5078 51.1406 41.4375 51.2344C41.3438 51.3047 41.0859 51.3281 40.875 51.2344C40.5469 51.1172 40.5 50.8828 40.6406 49.8516C40.7109 49.1953 40.8516 47.9297 40.9219 47.0391L41.0859 45.4688H38.3438C36.375 45.4688 35.5781 45.5391 35.5078 45.75Z" fill="white"/>
<path d="M52.8281 48.0234C52.125 48.3281 51.3281 49.4062 51.3281 50.0859C51.3281 51.3984 52.4531 52.5 53.7891 52.5C54.1172 52.5 54.7031 52.1953 55.125 51.8203C55.7578 51.2578 55.8984 50.9766 55.8984 50.1797C55.8984 48.6094 54.2344 47.4375 52.8281 48.0234Z" fill="white"/>
<path d="M7.31188 49.9687C7.0072 50.2734 6.93688 51.0703 7.21813 51.4687C7.7572 52.2422 9.14001 51.75 9.14001 50.7656C9.14001 50.1094 8.71813 49.6875 8.08532 49.6875C7.80407 49.6875 7.47595 49.8047 7.31188 49.9687Z" fill="white"/>
</svg>
