<svg width="25" height="25" viewBox="0 0 25 25" fill="none" xmlns="http://www.w3.org/2000/svg">
<path d="M20.3037 21.6772C19.7662 21.6772 19.3281 21.2391 19.3281 20.7016V19.726H20.3037C21.8588 19.726 22.2548 19.1973 22.2548 19.1973V20.7016C22.2548 21.2391 21.8168 21.6772 21.2793 21.6772H20.3037Z" fill="url(#paint0_linear_1896_3077)"/>
<path d="M3.71971 21.6772C3.18217 21.6772 2.74414 21.2391 2.74414 20.7016V19.1973C2.74414 19.1973 3.14022 19.726 4.69528 19.726H5.67086V20.7016C5.67086 21.2391 5.23282 21.6772 4.69528 21.6772H3.71971Z" fill="url(#paint1_linear_1896_3077)"/>
<path d="M25 11.4336C25 10.1878 23.9893 9.17712 22.7435 9.17712C21.7757 9.17712 20.9563 9.78978 20.6363 10.6463L19.5661 13.0433C19.4861 12.9936 16.2501 11.977 12.5605 11.977C8.87087 11.977 5.5071 12.9984 5.42515 13.0492L4.41154 10.8005C4.1374 9.86588 3.28085 9.1781 2.2565 9.1781C1.01069 9.1781 0 10.1878 0 11.4346C0 12.4716 0.704363 13.336 1.6575 13.6004L2.07504 17.1895C2.516 18.7124 4.69543 18.7504 4.69543 18.7504H20.3046C20.3046 18.7504 22.484 18.7124 22.925 17.1875L23.3425 13.5984C24.2947 13.335 25 12.4707 25 11.4336Z" fill="url(#paint2_linear_1896_3077)"/>
<path d="M2.25555 8.00647C3.73061 8.00647 5.05447 8.98009 5.50811 10.3849L6.00175 11.4824C6.95683 11.1381 10.3908 10.8064 12.5605 10.8064C14.6707 10.8064 18.0559 11.1146 18.9925 11.4561L19.5534 10.1986C20.0617 8.88546 21.3387 8.00647 22.7435 8.00647C22.8469 8.00647 22.9455 8.02794 23.0479 8.03672C23.0479 8.03086 23.0489 8.02403 23.0489 8.01818C23.0489 5.42511 20.9475 3.32275 18.3535 3.32275C18.0276 3.32275 6.97244 3.32275 6.6466 3.32275C4.05353 3.32275 1.95117 5.42413 1.95117 8.01818C1.95117 8.02403 1.95215 8.03086 1.95215 8.03672C2.05361 8.02891 2.15214 8.00647 2.25555 8.00647Z" fill="url(#paint3_linear_1896_3077)"/>
<defs>
<linearGradient id="paint0_linear_1896_3077" x1="19.3281" y1="20.4372" x2="22.2548" y2="20.4372" gradientUnits="userSpaceOnUse">
<stop stop-color="#B79891"/>
<stop offset="1" stop-color="#94716B"/>
</linearGradient>
<linearGradient id="paint1_linear_1896_3077" x1="2.74414" y1="20.4372" x2="5.67086" y2="20.4372" gradientUnits="userSpaceOnUse">
<stop stop-color="#B79891"/>
<stop offset="1" stop-color="#94716B"/>
</linearGradient>
<linearGradient id="paint2_linear_1896_3077" x1="0" y1="13.9638" x2="25" y2="13.9638" gradientUnits="userSpaceOnUse">
<stop stop-color="#B79891"/>
<stop offset="1" stop-color="#94716B"/>
</linearGradient>
<linearGradient id="paint3_linear_1896_3077" x1="1.95117" y1="7.40259" x2="23.0489" y2="7.40259" gradientUnits="userSpaceOnUse">
<stop stop-color="#B79891"/>
<stop offset="1" stop-color="#94716B"/>
</linearGradient>
</defs>
</svg>
