<svg width="50" height="50" viewBox="0 0 50 50" fill="none" xmlns="http://www.w3.org/2000/svg">
<circle cx="25" cy="25" r="25" fill="url(#paint0_linear_1896_2946)"/>
<g clip-path="url(#clip0_1896_2946)">
<path d="M36.62 26.972C37.3658 20.6938 36.2617 16.7303 34.27 14.9376L34.271 14.9365C31.0565 11.8751 20.2002 11.422 16.3544 15.074C14.6273 16.8605 14.019 19.4824 13.9523 22.7282C13.8856 25.9751 13.8065 32.0574 19.4742 33.7074H19.4794L19.4742 36.2272C19.4742 36.2272 19.4356 37.248 20.0877 37.4532C20.8335 37.6949 21.171 37.2209 23.4908 34.4501C27.37 34.7865 30.3492 34.0157 30.6877 33.9032C31.471 33.6407 35.9033 33.0543 36.62 26.972ZM23.8731 32.6772C23.8731 32.6772 21.4179 35.7386 20.6544 36.5334C20.4044 36.7918 20.1304 36.7678 20.1346 36.2553C20.1346 35.9188 20.1533 32.072 20.1533 32.072C15.3481 30.6949 15.6315 25.5157 15.6835 22.8063C15.7356 20.0959 16.2315 17.8761 17.694 16.3813C21.0679 13.2178 30.5856 13.9251 33.0106 16.2043C35.9752 18.8324 34.92 26.2574 34.9262 26.5105C34.3169 31.5876 30.7252 31.9095 30.0648 32.1293C29.7825 32.223 27.1627 32.897 23.8731 32.6772V32.6772Z" fill="white"/>
<path d="M25.2305 16.9761C24.8294 16.9761 24.8294 17.6011 25.2305 17.6063C28.3419 17.6302 30.9044 19.799 30.9325 23.7771C30.9325 24.1969 31.5471 24.1917 31.5419 23.7719H31.5409C31.5076 19.4854 28.7096 17 25.2305 16.9761V16.9761Z" fill="white"/>
<path d="M29.3248 23.1177C29.3154 23.5323 29.929 23.5521 29.9342 23.1323C29.9852 20.7688 28.5279 18.8219 25.7894 18.6167C25.3883 18.5875 25.3467 19.2177 25.7467 19.2469C28.1217 19.4271 29.3727 21.048 29.3248 23.1177V23.1177Z" fill="white"/>
<path d="M28.6672 25.8064C28.1526 25.5085 27.6286 25.6939 27.4119 25.9866L26.9588 26.5731C26.7286 26.871 26.2984 26.8314 26.2984 26.8314C23.1588 26.0012 22.3192 22.7158 22.3192 22.7158C22.3192 22.7158 22.2807 22.271 22.5682 22.0325L23.1349 21.5637C23.4182 21.3387 23.5974 20.7971 23.3088 20.2648C22.538 18.8721 22.0203 18.3919 21.7567 18.0231C21.4797 17.6762 21.063 17.5981 20.6297 17.8325H20.6203C19.7192 18.3596 18.7328 19.346 19.0484 20.3616C19.5869 21.4325 20.5765 24.846 23.7307 27.4252C25.213 28.645 27.5588 29.895 28.5547 30.1835L28.564 30.1981C29.5453 30.5252 30.4994 29.5002 31.0088 28.5721V28.5648C31.2349 28.1158 31.1599 27.6908 30.8297 27.4127C30.2442 26.8419 29.3609 26.2116 28.6672 25.8064Z" fill="white"/>
<path d="M26.2179 20.9414C27.2189 20.9998 27.7044 21.5227 27.7564 22.5966C27.7752 23.0164 28.3846 22.9873 28.3658 22.5675C28.2992 21.1654 27.5679 20.3841 26.2512 20.3112C25.8502 20.2873 25.8127 20.9175 26.2179 20.9414V20.9414Z" fill="white"/>
</g>
<defs>
<linearGradient id="paint0_linear_1896_2946" x1="0" y1="25" x2="50" y2="25" gradientUnits="userSpaceOnUse">
<stop stop-color="#B79891"/>
<stop offset="1" stop-color="#94716B"/>
</linearGradient>
<clipPath id="clip0_1896_2946">
<rect width="25" height="25" fill="white" transform="translate(12.5 12.5)"/>
</clipPath>
</defs>
</svg>
