<svg width="50" height="50" viewBox="0 0 50 50" fill="none" xmlns="http://www.w3.org/2000/svg">
<circle cx="25" cy="25" r="25" fill="url(#paint0_linear_1896_2959)"/>
<g clip-path="url(#clip0_1896_2959)">
<path d="M30.7356 27.4033L30.7262 27.4814C28.4356 26.3397 28.196 26.1876 27.9002 26.6314C27.695 26.9387 27.0971 27.6356 26.9169 27.8418C26.7346 28.0449 26.5533 28.0606 26.244 27.9199C25.9315 27.7637 24.9283 27.4356 23.7408 26.3731C22.8158 25.5449 22.195 24.5293 22.0117 24.2168C21.7065 23.6897 22.345 23.6147 22.9263 22.5147C23.0304 22.296 22.9773 22.1241 22.9002 21.9689C22.8221 21.8126 22.2002 20.2814 21.9398 19.671C21.6898 19.0626 21.4325 19.1397 21.2398 19.1397C20.6398 19.0876 20.2012 19.096 19.8148 19.4981C18.1335 21.346 18.5575 23.2522 19.996 25.2793C22.8231 28.9793 24.3294 29.6606 27.0835 30.6064C27.8273 30.8428 28.5054 30.8095 29.0419 30.7324C29.6398 30.6376 30.8825 29.9814 31.1419 29.247C31.4075 28.5126 31.4075 27.9033 31.3294 27.7626C31.2523 27.622 31.0481 27.5439 30.7356 27.4033V27.4033Z" fill="white"/>
<path d="M33.875 16.0922C25.8656 8.34947 12.6104 13.9651 12.6052 24.888C12.6052 27.0713 13.1771 29.2005 14.2667 31.0807L12.5 37.4995L19.099 35.7786C27.3333 40.2266 37.4958 34.3203 37.5 24.8943C37.5 21.5859 36.2083 18.4724 33.8594 16.1328L33.875 16.0922ZM35.4187 24.8599C35.4125 32.8109 26.6844 37.7766 19.7812 33.7182L19.4062 33.4953L15.5 34.5109L16.5469 30.7141L16.2979 30.3234C12.0021 23.4849 16.9375 14.5474 25.075 14.5474C27.8396 14.5474 30.4344 15.6255 32.3885 17.5786C34.3417 19.5151 35.4187 22.1099 35.4187 24.8599V24.8599Z" fill="white"/>
</g>
<defs>
<linearGradient id="paint0_linear_1896_2959" x1="0" y1="25" x2="50" y2="25" gradientUnits="userSpaceOnUse">
<stop stop-color="#B79891"/>
<stop offset="1" stop-color="#94716B"/>
</linearGradient>
<clipPath id="clip0_1896_2959">
<rect width="25" height="25" fill="white" transform="translate(12.5 12.5)"/>
</clipPath>
</defs>
</svg>
